HIERARCHY
ROOT joint_Root
{
	OFFSET 0.0 0.0 0.0
	CHANNELS 6 Xposition Yposition Zposition Zrotation Xrotation Yrotation 
	JOINT Hips
	{
		OFFSET -0.726466 93.3139 -2.00062
		CHANNELS 6 Xposition Yposition Zposition Zrotation Xrotation Yrotation 
		JOINT Spine
		{
			OFFSET 15.7357 0.0 0.0
			CHANNELS 6 Xposition Yposition Zposition Zrotation Xrotation Yrotation 
			JOINT Chest
			{
				OFFSET 8.98455 -0.406207 0.0
				CHANNELS 6 Xposition Yposition Zposition Zrotation Xrotation Yrotation 
				JOINT Neck
				{
					OFFSET 16.3773 0.0 0.0
					CHANNELS 6 Xposition Yposition Zposition Zrotation Xrotation Yrotation 
					JOINT Head
					{
						OFFSET 6.45672 0.0 0.0
						CHANNELS 6 Xposition Yposition Zposition Zrotation Xrotation Yrotation 
						End Site
						{
							OFFSET 0.0 0.0 0.0
						}
					}
				}
				JOINT Shoulder_L
				{
					OFFSET 12.9942 -0.242716 4.98039
					CHANNELS 6 Xposition Yposition Zposition Zrotation Xrotation Yrotation 
					JOINT UpperArm_L
					{
						OFFSET 5.34809 0.0 0.0
						CHANNELS 6 Xposition Yposition Zposition Zrotation Xrotation Yrotation 
						JOINT LowerArm_L
						{
							OFFSET 24.3286 1.87007e-05 0.0
							CHANNELS 6 Xposition Yposition Zposition Zrotation Xrotation Yrotation 
							JOINT Hand_L
							{
								OFFSET 22.2916 0.0 0.0
								CHANNELS 6 Xposition Yposition Zposition Zrotation Xrotation Yrotation 
								End Site
								{
									OFFSET 0.0 0.0 0.0
								}
							}
						}
					}
				}
				JOINT Shoulder_R
				{
					OFFSET 12.9945 -0.242716 -4.98039
					CHANNELS 6 Xposition Yposition Zposition Zrotation Xrotation Yrotation 
					JOINT UpperArm_R
					{
						OFFSET -5.34813 0.0 0.0
						CHANNELS 6 Xposition Yposition Zposition Zrotation Xrotation Yrotation 
						JOINT LowerArm_R
						{
							OFFSET -24.3289 0.000322201 0.0
							CHANNELS 6 Xposition Yposition Zposition Zrotation Xrotation Yrotation 
							JOINT Hand_R
							{
								OFFSET -22.2915 -0.000108084 0.0
								CHANNELS 6 Xposition Yposition Zposition Zrotation Xrotation Yrotation 
								End Site
								{
									OFFSET 0.0 0.0 0.0
								}
							}
						}
					}
				}
			}
		}
		JOINT UpperLeg_L
		{
			OFFSET -2.19248 -6.46944 0.0
			CHANNELS 6 Xposition Yposition Zposition Zrotation Xrotation Yrotation 
			JOINT LowerLeg_L
			{
				OFFSET 39.0811 0.0 -1.23785e-05
				CHANNELS 6 Xposition Yposition Zposition Zrotation Xrotation Yrotation 
				JOINT Foot_L
				{
					OFFSET 40.9854 0.0 -1.26872e-05
					CHANNELS 6 Xposition Yposition Zposition Zrotation Xrotation Yrotation 
					JOINT Toes_L
					{
						OFFSET 11.7543 0.0 0.0
						CHANNELS 6 Xposition Yposition Zposition Zrotation Xrotation Yrotation 
						End Site
						{
							OFFSET 0.0 0.0 0.0
						}
					}
				}
			}
		}
		JOINT UpperLeg_R
		{
			OFFSET -2.19251 6.46944 0.0
			CHANNELS 6 Xposition Yposition Zposition Zrotation Xrotation Yrotation 
			JOINT LowerLeg_R
			{
				OFFSET -39.0811 -0.00228153 -0.0401928
				CHANNELS 6 Xposition Yposition Zposition Zrotation Xrotation Yrotation 
				JOINT Foot_R
				{
					OFFSET -40.9854 0.0 0.0
					CHANNELS 6 Xposition Yposition Zposition Zrotation Xrotation Yrotation 
					JOINT Toes_R
					{
						OFFSET -11.7543 0.0 0.0
						CHANNELS 6 Xposition Yposition Zposition Zrotation Xrotation Yrotation 
						End Site
						{
							OFFSET 0.0 0.0 0.0
						}
					}
				}
			}
		}
	}
}
MOTION
Frames:	4
Frame Time:	0.0333333
0.000000 0.000000 0.000000 0.000000 0.000000 -0.000000 -0.868809 92.036900 -1.033240 87.556400 -1.586600 4.339920 15.735700 0.000005 -0.000001 93.306700 86.069300 -93.705500 8.984550 -0.406207 -0.000000 0.084184 0.480063 -0.797395 16.377300 -0.000001 -0.000001 2.410680 -1.476280 2.287000 6.456720 -0.000001 -0.000000 2.101810 -2.070770 -3.525700 12.994200 -0.242716 4.980390 -89.025500 -2.793060 -70.756900 5.348090 -0.000007 -0.000001 23.895000 75.124000 -70.709800 24.328600 0.000019 0.000005 9.792870 0.411623 -87.616700 22.291600 -0.000001 0.000005 38.630500 5.533460 -34.293100 12.994500 -0.242716 -4.980390 90.626500 -1.639510 -69.081700 -5.348130 -0.000001 -0.000004 -55.889200 -47.357000 -92.695400 -24.328900 0.000322 -0.000009 8.302630 3.996670 -64.474100 -22.291500 -0.000108 -0.000004 19.684900 5.386180 -2.493580 -2.192480 -6.469440 -0.000000 -168.678000 -19.319000 -1.913230 39.081100 -0.000007 -0.000012 -0.176772 0.420071 22.822200 40.985400 -0.000006 -0.000013 -6.013850 0.385432 -64.139800 11.754300 -0.000000 0.000003 -0.000096 -0.000998 -16.615900 -2.192510 6.469440 -0.000001 173.908000 23.948300 -179.401000 -39.081100 -0.002282 -0.040193 0.000630 0.007443 19.877000 -40.985400 0.000008 0.000006 -1.815020 3.512930 -63.597600 -11.754300 -0.000006 -0.000006 -0.003589 -0.047097 -18.488700
0.000000 0.000000 0.000000 0.000000 0.000000 -0.000000 -0.880542 92.028000 -0.995194 87.541500 -1.601930 4.322500 15.735700 0.000005 -0.000001 93.478900 86.063700 -93.884700 8.984550 -0.406207 -0.000000 0.093896 0.504758 -0.811478 16.377300 -0.000001 -0.000001 2.429620 -1.507650 2.344900 6.456720 -0.000001 -0.000000 2.137840 -2.107770 -3.604230 12.994200 -0.242716 4.980390 -89.027300 -2.786760 -70.749700 5.348090 -0.000007 -0.000001 23.773000 75.089600 -70.589100 24.328600 0.000019 0.000005 9.795250 0.410005 -87.626600 22.291600 -0.000001 0.000005 38.548300 5.534300 -34.255600 12.994500 -0.242716 -4.980390 90.637700 -1.666930 -69.060500 -5.348130 -0.000001 -0.000004 -55.910700 -47.389000 -92.682300 -24.328900 0.000322 -0.000009 8.286490 3.972910 -64.562700 -22.291500 -0.000108 -0.000004 19.753100 5.385240 -2.464110 -2.192480 -6.469440 -0.000000 -168.646000 -19.360300 -1.935170 39.081100 -0.000007 -0.000012 -0.177443 0.420585 22.874800 40.985400 -0.000006 -0.000013 -6.024520 0.412834 -64.174900 11.754300 -0.000000 0.000003 -0.000095 -0.000983 -16.615300 -2.192510 6.469440 -0.000001 173.954000 23.893000 -179.431000 -39.081100 -0.002282 -0.040193 0.003251 0.000194 19.938900 -40.985400 0.000008 0.000006 -1.777540 3.442240 -63.660800 -11.754300 -0.000006 -0.000006 -0.003669 -0.047956 -18.523700
0.000000 0.000000 0.000000 0.000000 0.000000 -0.000000 -0.894148 92.034900 -0.971959 87.541600 -1.612810 4.313710 15.735700 0.000005 -0.000001 93.620900 86.053600 -94.042300 8.984550 -0.406207 -0.000000 0.113085 0.526475 -0.842857 16.377300 -0.000001 -0.000001 2.454190 -1.531670 2.382430 6.456720 -0.000001 -0.000000 2.123270 -2.164850 -3.556060 12.994200 -0.242716 4.980390 -89.032400 -2.769950 -70.736100 5.348090 -0.000007 -0.000001 23.348600 75.105100 -70.161900 24.328600 0.000019 0.000005 9.773020 0.405462 -87.647400 22.291600 -0.000001 0.000005 38.484100 5.532840 -34.320100 12.994500 -0.242716 -4.980390 90.628400 -1.638970 -69.018200 -5.348130 -0.000001 -0.000004 -55.988000 -47.401000 -92.727300 -24.328900 0.000322 -0.000009 8.374420 3.994810 -64.678400 -22.291500 -0.000108 -0.000004 19.602300 5.387490 -2.535270 -2.192480 -6.469440 -0.000000 -168.638000 -19.350500 -1.886960 39.081100 -0.000007 -0.000012 -0.177395 0.421941 22.803400 40.985400 -0.000006 -0.000013 -6.048550 0.359993 -64.157200 11.754300 -0.000000 0.000003 -0.000094 -0.000976 -16.615100 -2.192510 6.469440 -0.000001 173.979000 23.920500 -179.430000 -39.081100 -0.002282 -0.040193 0.008428 -0.014080 19.935300 -40.985400 0.000008 0.000006 -1.603530 3.424020 -63.685700 -11.754300 -0.000006 -0.000006 -0.003735 -0.048660 -18.552300
0.000000 0.000000 0.000000 0.000000 0.000000 -0.000000 -0.907699 92.033000 -0.951964 87.506500 -1.634220 4.244750 15.735700 0.000005 -0.000001 93.635900 86.058500 -94.051100 8.984550 -0.406207 -0.000000 0.103125 0.527518 -0.830267 16.377300 -0.000001 -0.000001 2.462510 -1.545210 2.428360 6.456720 -0.000001 -0.000000 2.081870 -2.200620 -3.546840 12.994200 -0.242716 4.980390 -89.039200 -2.744020 -70.694100 5.348090 -0.000007 -0.000001 22.848800 75.175400 -69.688000 24.328600 0.000019 0.000005 9.799860 0.411172 -87.621000 22.291600 -0.000001 0.000005 38.484300 5.532040 -34.354500 12.994500 -0.242716 -4.980390 90.633000 -1.648820 -68.994000 -5.348130 -0.000001 -0.000004 -56.124000 -47.422800 -92.842700 -24.328900 0.000322 -0.000009 8.329490 3.957950 -64.762500 -22.291500 -0.000108 -0.000004 19.610000 5.387610 -2.539220 -2.192480 -6.469440 -0.000000 -168.605000 -19.407200 -1.946970 39.081100 -0.000007 -0.000012 -0.176627 0.419656 22.825700 40.985400 -0.000006 -0.000013 -6.052030 0.408588 -64.176900 11.754300 -0.000000 0.000003 -0.000098 -0.001014 -16.616500 -2.192510 6.469440 -0.000001 174.056000 23.904800 -179.492000 -39.081100 -0.002282 -0.040193 0.008725 -0.014905 19.926800 -40.985400 0.000008 0.000006 -1.560360 3.426010 -63.699200 -11.754300 -0.000006 -0.000006 -0.003530 -0.046460 -18.462800
